<svg data-v-fde0c5aa="" xmlns="http://www.w3.org/2000/svg" viewBox="0 0 300 300" class="iconAbove"><!----><defs data-v-fde0c5aa=""><linearGradient data-v-fde0c5aa="" gradientTransform="rotate(25)" id="1f1885c3-d975-4a19-a4a2-61301df136e8" x1="0%" y1="0%" x2="100%" y2="0%"><stop data-v-fde0c5aa="" offset="0%" stop-color="#945069" stop-opacity="1"></stop><stop data-v-fde0c5aa="" offset="100%" stop-color="#86C866" stop-opacity="1"></stop></linearGradient></defs><rect data-v-fde0c5aa="" fill="url(#1f1885c3-d975-4a19-a4a2-61301df136e8)" x="0" y="0" width="300px" height="300px" class="logo-background-square"></rect><defs data-v-fde0c5aa=""><!----></defs><g data-v-fde0c5aa="" id="0b497384-5fe7-4760-92d1-c0581e58c09c" fill="#ffffff" transform="matrix(3.7742899527703133,0,0,3.7742899527703133,25.69375702203294,187.76008990803743)"><path d="M8.37 10.72L8.37 10.72Q8.86 10.36 9.12 9.91L9.12 9.91L9.12 9.91Q9.38 9.45 9.38 8.99L9.38 8.99L9.38 8.99Q9.38 8.54 9.11 8.13L9.11 8.13L9.11 8.13Q8.85 7.71 8.32 7.39L8.32 7.39L8.32 7.39Q7.24 6.75 5.95 6.75L5.95 6.75L5.95 6.75Q4.86 6.75 3.89 7.21L3.89 7.21L3.89 7.21Q3.56 8.82 2.94 12.07L2.94 12.07L2.94 12.10L2.94 12.10Q4.73 12.03 6.04 11.76L6.04 11.76L6.04 11.76Q7.35 11.49 8.37 10.72L8.37 10.72ZM7.08 3.25L7.08 3.25Q6.92 2.34 5.98 2.34L5.98 2.34L5.98 2.34Q5.53 2.34 4.94 2.55L4.94 2.55L4.94 2.55Q4.68 3.64 4.20 5.82L4.20 5.82L4.20 5.82Q5.28 5.56 6.20 4.93L6.20 4.93L6.20 4.93Q7.11 4.30 7.11 3.49L7.11 3.49L7.11 3.49Q7.11 3.42 7.08 3.25L7.08 3.25ZM8.92 6.29L8.92 6.29Q9.80 6.68 10.31 7.31L10.31 7.31L10.31 7.31Q10.82 7.94 10.82 8.69L10.82 8.69L10.82 8.69Q10.82 9.42 10.35 10.12L10.35 10.12L10.35 10.12Q9.23 11.79 7.01 12.46L7.01 12.46L7.01 12.46Q4.79 13.13 2.17 13.13L2.17 13.13L2.17 13.13Q1.47 13.13 0.84 13.09L0.84 13.09L0.84 13.09Q0.52 13.08 0.52 12.89L0.52 12.89L0.52 12.89Q0.52 12.70 0.86 12.43L0.86 12.43L0.86 12.43Q1.20 12.17 1.44 12.14L1.44 12.14L1.44 12.14Q2.25 7.80 3.32 3.35L3.32 3.35L3.32 3.35Q3.15 3.39 2.95 3.39L2.95 3.39L2.95 3.39Q2.73 3.39 2.58 3.33L2.58 3.33L2.58 3.33Q2.44 3.28 2.44 3.15L2.44 3.15L2.44 3.15Q2.44 3.00 2.69 2.77L2.69 2.77L2.69 2.77Q3.02 2.48 3.63 2.14L3.63 2.14L3.63 2.14Q3.63 2.10 3.65 2.02L3.65 2.02L3.65 2.02Q3.72 1.76 4.08 1.58L4.08 1.58L4.08 1.58Q4.44 1.40 4.77 1.40L4.77 1.40L4.77 1.40Q5.04 1.40 5.11 1.51L5.11 1.51L5.11 1.51Q5.88 1.30 6.47 1.30L6.47 1.30L6.47 1.30Q7.99 1.30 8.44 2.53L8.44 2.53L8.44 2.53Q8.57 2.87 8.57 3.19L8.57 3.19L8.57 3.19Q8.57 3.91 8.04 4.56L8.04 4.56L8.04 4.56Q7.52 5.22 6.65 5.77L6.65 5.77L6.65 5.77Q7.87 5.81 8.92 6.29L8.92 6.29ZM16.59 7.71L16.59 7.71Q16.59 6.23 14.85 5.38L14.85 5.38L14.85 5.38Q14.42 5.74 13.99 6.34L13.99 6.34L13.99 6.34Q13.45 7.11 13.10 8.06L13.10 8.06L13.10 8.06Q12.96 8.44 12.84 9.09L12.84 9.09L12.84 9.09Q12.71 9.74 12.71 10.30L12.71 10.30L12.71 10.30Q12.71 10.88 12.87 11.22L12.87 11.22L12.87 11.22Q13.03 11.56 13.40 11.56L13.40 11.56L13.40 11.56Q13.69 11.56 14.08 11.33L14.08 11.33L14.08 11.33Q15.16 10.70 15.88 9.76L15.88 9.76L15.88 9.76Q16.59 8.82 16.59 7.71L16.59 7.71ZM16.98 5.18L16.98 5.18Q17.49 5.66 17.76 6.26L17.76 6.26L17.76 6.26Q18.03 6.86 18.03 7.53L18.03 7.53L18.03 7.53Q18.03 8.50 17.47 9.49L17.47 9.49L17.47 9.49Q17.09 10.16 16.37 10.91L16.37 10.91L16.37 10.91Q15.64 11.65 14.75 12.16L14.75 12.16L14.75 12.16Q13.86 12.67 13.05 12.67L13.05 12.67L13.05 12.67Q12.54 12.67 12.10 12.45L12.10 12.45L12.10 12.45Q11.14 11.93 11.14 10.58L11.14 10.58L11.14 10.58Q11.14 9.62 11.58 8.46L11.58 8.46L11.58 8.46Q12.01 7.31 12.50 6.51L12.50 6.51L12.50 6.51Q13.69 4.62 15.01 4.13L15.01 4.13L15.01 4.13Q15.37 3.99 15.79 3.99L15.79 3.99L15.79 3.99Q16.28 3.99 16.62 4.23L16.62 4.23L16.62 4.23Q16.95 4.48 17.01 5.00L17.01 5.00L17.01 5.05L17.01 5.05Q17.01 5.10 16.98 5.18L16.98 5.18ZM22.02 3.88L22.02 3.88Q22.43 3.71 22.76 3.71L22.76 3.71L22.76 3.71Q23.13 3.71 23.35 3.90L23.35 3.90L23.35 3.90Q23.58 4.09 23.58 4.51L23.58 4.51L23.58 4.51Q23.58 4.91 23.45 5.39L23.45 5.39L23.45 5.39Q23.32 5.87 23.10 6.51L23.10 6.51L22.90 7.10L22.90 7.10Q22.82 7.36 22.47 7.55L22.47 7.55L22.47 7.55Q22.12 7.73 21.80 7.73L21.80 7.73L21.80 7.73Q21.59 7.73 21.48 7.64L21.48 7.64L21.48 7.64Q21.38 7.55 21.43 7.36L21.43 7.36L21.43 7.36Q21.69 6.58 21.94 5.63L21.94 5.63L21.94 5.63Q21.99 5.19 22.02 5.05L22.02 5.05L21.97 5.11L21.97 5.11Q20.89 6.03 19.99 7.43L19.99 7.43L19.99 7.43Q19.59 9.66 19.49 11.90L19.49 11.90L19.49 11.90Q19.47 12.17 19.13 12.37L19.13 12.37L19.13 12.37Q18.79 12.57 18.42 12.57L18.42 12.57L18.42 12.57Q18.21 12.57 18.07 12.47L18.07 12.47L18.07 12.47Q17.93 12.38 17.95 12.18L17.95 12.18L17.95 12.18Q18.06 10.16 18.38 8.26L18.38 8.26L18.38 8.26Q18.24 8.16 18.24 8.04L18.24 8.04L18.24 8.04Q18.24 7.95 18.30 7.85L18.30 7.85L18.51 7.50L18.51 7.50Q18.82 5.89 19.26 4.27L19.26 4.27L19.26 4.27Q19.33 4.02 19.71 3.83L19.71 3.83L19.71 3.83Q20.08 3.64 20.41 3.64L20.41 3.64L20.41 3.64Q20.62 3.64 20.73 3.72L20.73 3.72L20.73 3.72Q20.85 3.81 20.79 3.98L20.79 3.98L20.79 3.98Q20.57 4.76 20.51 5.01L20.51 5.01L20.51 5.01Q21.35 4.17 22.02 3.88L22.02 3.88ZM24.56 10.51L24.56 10.51Q24.53 10.68 24.53 10.75L24.53 10.75L24.53 10.75Q24.53 11.31 25.07 11.31L25.07 11.31L25.07 11.31Q25.40 11.31 25.86 11.13L25.86 11.13L25.86 11.13Q26.28 10.96 27.41 10.42L27.41 10.42L27.41 10.42Q27.44 10.07 27.48 9.74L27.48 9.74L27.48 9.74Q27.51 9.41 27.54 9.14L27.54 9.14L27.64 8.18L27.64 8.18Q26.67 8.64 26.19 8.90L26.19 8.90L26.19 8.90Q25.49 9.31 25.07 9.67L25.07 9.67L25.07 9.67Q24.65 10.02 24.56 10.51L24.56 10.51ZM28.20 3.92L28.20 3.92Q28.83 3.92 29.04 4.23L29.04 4.23L29.04 4.23Q29.26 4.55 29.26 5.15L29.26 5.15L29.25 5.54L29.25 5.54Q29.19 6.57 28.99 8.54L28.99 8.54L28.99 8.54Q28.95 8.82 28.90 9.48L28.90 9.48L28.90 9.48Q28.84 9.88 28.80 10.14L28.80 10.14L28.80 10.14Q28.95 10.22 28.95 10.36L28.95 10.36L28.95 10.36Q28.95 10.46 28.85 10.65L28.85 10.65L28.80 10.72L28.71 10.81L28.71 10.81Q28.62 11.52 28.62 12.03L28.62 12.03L28.62 12.03Q28.81 12.14 28.81 12.29L28.81 12.29L28.81 12.29Q28.81 12.53 28.46 12.80L28.46 12.80L28.46 12.80Q28.36 12.87 28.24 12.94L28.24 12.94L28.24 12.94Q28.14 12.99 27.96 13.03L27.96 13.03L27.96 13.03Q27.79 13.08 27.62 13.08L27.62 13.08L27.62 13.08Q27.10 13.08 27.15 12.70L27.15 12.70L27.26 11.52L27.26 11.52Q25.38 12.42 24.37 12.42L24.37 12.42L24.37 12.42Q23.10 12.42 23.10 11.05L23.10 11.05L23.10 11.05Q23.10 9.73 24.46 8.81L24.46 8.81L24.46 8.81Q25.83 7.88 27.73 7.14L27.73 7.14L27.73 7.14Q27.79 6.59 27.82 6.03L27.82 6.03L27.82 6.03Q27.82 5.92 27.83 5.75L27.83 5.75L27.83 5.75Q27.85 5.59 27.85 5.38L27.85 5.38L27.85 5.38Q27.85 5.11 27.80 5.03L27.80 5.03L27.76 4.97L27.75 4.97L27.75 4.97Q27.54 4.97 26.96 5.54L26.96 5.54L26.96 5.54Q26.45 6.05 25.68 7.06L25.68 7.06L25.68 7.06Q25.56 7.21 25.30 7.31L25.30 7.31L25.30 7.31Q25.05 7.41 24.78 7.41L24.78 7.41L24.78 7.41Q24.58 7.41 24.45 7.34L24.45 7.34L24.45 7.34Q24.32 7.27 24.32 7.13L24.32 7.13L24.32 7.13Q24.32 7.01 24.43 6.83L24.43 6.83L24.43 6.83Q26.36 3.92 28.20 3.92L28.20 3.92ZM40.39 1.62L40.39 1.62Q40.56 1.74 40.56 1.92L40.56 1.92L40.56 1.92Q40.56 2.11 40.33 2.30L40.33 2.30L40.33 2.30Q39.59 2.88 39.13 3.81L39.13 3.81L39.13 3.81Q38.67 4.75 38.16 6.16L38.16 6.16L38.04 6.51L38.04 6.51Q37.58 7.76 37.16 9.16L37.16 9.16L37.16 9.16Q36.74 10.56 36.67 10.81L36.67 10.81L36.67 10.81Q36.43 11.63 36.23 12.26L36.23 12.26L36.23 12.26Q36.18 12.45 35.82 12.63L35.82 12.63L35.82 12.63Q35.46 12.82 35.15 12.82L35.15 12.82L35.15 12.82Q34.80 12.82 34.75 12.56L34.75 12.56L34.75 12.56Q33.98 8.75 33.98 4.84L33.98 4.84L33.98 4.84Q33.98 3.54 34.06 2.24L34.06 2.24L34.06 2.24Q34.08 1.99 34.43 1.79L34.43 1.79L34.43 1.79Q34.79 1.60 35.14 1.60L35.14 1.60L35.14 1.60Q35.34 1.60 35.46 1.68L35.46 1.68L35.46 1.68Q35.57 1.76 35.56 1.92L35.56 1.92L35.56 1.92Q35.49 3.36 35.49 4.51L35.49 4.51L35.49 4.51Q35.49 6.92 35.74 8.97L35.74 8.97L35.74 8.97Q36.41 6.90 36.76 5.99L36.76 5.99L36.76 5.99Q37.18 4.93 37.48 4.26L37.48 4.26L37.48 4.26Q37.77 3.60 38.23 2.93L38.23 2.93L38.23 2.93Q38.70 2.27 39.31 1.85L39.31 1.85L39.31 1.85Q39.76 1.54 40.11 1.54L40.11 1.54L40.11 1.54Q40.26 1.54 40.39 1.62L40.39 1.62ZM43.08 1.71L43.08 1.71Q42.92 1.67 42.77 1.67L42.77 1.67L42.77 1.67Q42.46 1.67 42.22 1.82L42.22 1.82L42.22 1.82Q41.92 1.99 41.87 2.16L41.87 2.16L41.87 2.16Q41.69 2.81 41.64 3.02L41.64 3.02L41.64 3.07L41.64 3.07Q41.64 3.14 41.69 3.20L41.69 3.20L41.69 3.20Q41.75 3.26 41.82 3.29L41.82 3.29L41.82 3.29Q41.93 3.35 42.07 3.35L42.07 3.35L42.07 3.35Q42.29 3.35 42.61 3.21L42.61 3.21L42.61 3.21Q42.92 3.08 43.02 2.84L43.02 2.84L43.02 2.84Q43.11 2.60 43.26 2.00L43.26 2.00L43.26 1.97L43.26 1.97Q43.26 1.90 43.20 1.83L43.20 1.83L43.20 1.83Q43.15 1.75 43.08 1.71L43.08 1.71ZM42.99 4.30L42.53 7.32L42.53 7.32Q42.45 7.88 42.22 9.35L42.22 9.35L42.22 9.35Q41.99 10.81 41.83 12.00L41.83 12.00L41.83 12.00Q41.79 12.26 41.46 12.45L41.46 12.45L41.46 12.45Q41.13 12.64 40.80 12.64L40.80 12.64L40.80 12.64Q40.57 12.64 40.45 12.55L40.45 12.55L40.45 12.55Q40.33 12.46 40.36 12.28L40.36 12.28L40.36 12.28Q40.60 10.88 40.87 9.08L40.87 9.08L40.87 9.08Q41.15 7.28 41.26 6.51L41.26 6.51L41.55 4.59L41.55 4.59Q41.59 4.34 41.94 4.16L41.94 4.16L41.94 4.16Q42.28 3.98 42.60 3.98L42.60 3.98L42.60 3.98Q42.80 3.98 42.91 4.06L42.91 4.06L42.91 4.06Q43.02 4.14 42.99 4.30L42.99 4.30ZM44.45 10.51L44.45 10.51Q44.42 10.68 44.42 10.75L44.42 10.75L44.42 10.75Q44.42 11.31 44.97 11.31L44.97 11.31L44.97 11.31Q45.29 11.31 45.75 11.13L45.75 11.13L45.75 11.13Q46.17 10.96 47.31 10.42L47.31 10.42L47.31 10.42Q47.33 10.07 47.37 9.74L47.37 9.74L47.37 9.74Q47.40 9.41 47.43 9.14L47.43 9.14L47.53 8.18L47.53 8.18Q46.56 8.64 46.09 8.90L46.09 8.90L46.09 8.90Q45.39 9.31 44.97 9.67L44.97 9.67L44.97 9.67Q44.55 10.02 44.45 10.51L44.45 10.51ZM48.09 3.92L48.09 3.92Q48.72 3.92 48.94 4.23L48.94 4.23L48.94 4.23Q49.15 4.55 49.15 5.15L49.15 5.15L49.14 5.54L49.14 5.54Q49.08 6.57 48.89 8.54L48.89 8.54L48.89 8.54Q48.85 8.82 48.79 9.48L48.79 9.48L48.79 9.48Q48.73 9.88 48.69 10.14L48.69 10.14L48.69 10.14Q48.85 10.22 48.85 10.36L48.85 10.36L48.85 10.36Q48.85 10.46 48.75 10.65L48.75 10.65L48.69 10.72L48.61 10.81L48.61 10.81Q48.51 11.52 48.51 12.03L48.51 12.03L48.51 12.03Q48.71 12.14 48.71 12.29L48.71 12.29L48.71 12.29Q48.71 12.53 48.36 12.80L48.36 12.80L48.36 12.80Q48.26 12.87 48.13 12.94L48.13 12.94L48.13 12.94Q48.03 12.99 47.86 13.03L47.86 13.03L47.86 13.03Q47.68 13.08 47.52 13.08L47.52 13.08L47.52 13.08Q47.00 13.08 47.04 12.70L47.04 12.70L47.15 11.52L47.15 11.52Q45.28 12.42 44.27 12.42L44.27 12.42L44.27 12.42Q42.99 12.42 42.99 11.05L42.99 11.05L42.99 11.05Q42.99 9.73 44.36 8.81L44.36 8.81L44.36 8.81Q45.72 7.88 47.63 7.14L47.63 7.14L47.63 7.14Q47.68 6.59 47.71 6.03L47.71 6.03L47.71 6.03Q47.71 5.92 47.73 5.75L47.73 5.75L47.73 5.75Q47.74 5.59 47.74 5.38L47.74 5.38L47.74 5.38Q47.74 5.11 47.70 5.03L47.70 5.03L47.66 4.97L47.64 4.97L47.64 4.97Q47.43 4.97 46.86 5.54L46.86 5.54L46.86 5.54Q46.34 6.05 45.57 7.06L45.57 7.06L45.57 7.06Q45.46 7.21 45.20 7.31L45.20 7.31L45.20 7.31Q44.94 7.41 44.67 7.41L44.67 7.41L44.67 7.41Q44.48 7.41 44.34 7.34L44.34 7.34L44.34 7.34Q44.21 7.27 44.21 7.13L44.21 7.13L44.21 7.13Q44.21 7.01 44.32 6.83L44.32 6.83L44.32 6.83Q46.26 3.92 48.09 3.92L48.09 3.92ZM51.07 4.59L51.07 4.59Q51.09 4.33 51.42 4.13L51.42 4.13L51.42 4.13Q51.74 3.93 52.09 3.93L52.09 3.93L52.09 3.93Q52.29 3.93 52.42 4.03L52.42 4.03L52.42 4.03Q52.56 4.12 52.54 4.30L52.54 4.30L52.54 4.30Q52.37 10.54 50.81 16.41L50.81 16.41L50.81 16.41Q50.50 17.53 49.96 18.27L49.96 18.27L49.96 18.27Q49.42 19.01 48.47 19.12L48.47 19.12L48.47 19.12Q48.38 19.14 48.22 19.14L48.22 19.14L48.22 19.14Q47.22 19.14 46.78 18.30L46.78 18.30L46.78 18.30Q46.34 17.47 46.17 16.24L46.17 16.24L46.17 16.24Q46.12 15.92 46.45 15.67L46.45 15.67L46.45 15.67Q46.79 15.43 47.17 15.43L47.17 15.43L47.17 15.43Q47.63 15.43 47.68 15.82L47.68 15.82L47.68 15.82Q47.78 16.63 47.91 17.18L47.91 17.18L47.91 17.18Q48.03 17.72 48.38 17.91L48.38 17.91L48.38 17.91Q48.52 17.96 48.57 17.96L48.57 17.96L48.57 17.96Q48.79 17.96 48.92 17.71L48.92 17.71L48.92 17.71Q49.04 17.46 49.11 17.23L49.11 17.23L49.11 17.23Q49.18 17.00 49.20 16.94L49.20 16.94L49.20 16.94Q49.49 16.04 49.70 15.10L49.70 15.10L49.70 15.10Q49.91 14.15 50.15 12.84L50.15 12.84L50.15 12.84Q50.88 8.89 51.07 4.59L51.07 4.59ZM50.79 3.04L50.79 3.04Q50.81 3.12 50.90 3.18L50.90 3.18L50.90 3.18Q51.00 3.23 51.10 3.25L51.10 3.25L51.10 3.25Q51.14 3.26 51.24 3.26L51.24 3.26L51.24 3.26Q51.46 3.26 51.63 3.18L51.63 3.18L51.63 3.18Q51.88 3.08 52.06 2.92L52.06 2.92L52.06 2.92Q52.23 2.76 52.19 2.53L52.19 2.53L52.07 1.97L52.07 1.97Q52.05 1.89 51.95 1.84L51.95 1.84L51.95 1.84Q51.86 1.79 51.76 1.78L51.76 1.78L51.76 1.78Q51.72 1.76 51.60 1.76L51.60 1.76L51.60 1.76Q51.42 1.76 51.21 1.83L51.21 1.83L51.21 1.83Q50.57 2.11 50.67 2.49L50.67 2.49L50.79 3.04ZM54.56 10.51L54.56 10.51Q54.53 10.68 54.53 10.75L54.53 10.75L54.53 10.75Q54.53 11.31 55.08 11.31L55.08 11.31L55.08 11.31Q55.40 11.31 55.86 11.13L55.86 11.13L55.86 11.13Q56.28 10.96 57.41 10.42L57.41 10.42L57.41 10.42Q57.44 10.07 57.48 9.74L57.48 9.74L57.48 9.74Q57.51 9.41 57.54 9.14L57.54 9.14L57.64 8.18L57.64 8.18Q56.67 8.64 56.20 8.90L56.20 8.90L56.20 8.90Q55.50 9.31 55.08 9.67L55.08 9.67L55.08 9.67Q54.66 10.02 54.56 10.51L54.56 10.51ZM58.20 3.92L58.20 3.92Q58.83 3.92 59.05 4.23L59.05 4.23L59.05 4.23Q59.26 4.55 59.26 5.15L59.26 5.15L59.25 5.54L59.25 5.54Q59.19 6.57 59.00 8.54L59.00 8.54L59.00 8.54Q58.95 8.82 58.90 9.48L58.90 9.48L58.90 9.48Q58.84 9.88 58.80 10.14L58.80 10.14L58.80 10.14Q58.95 10.22 58.95 10.36L58.95 10.36L58.95 10.36Q58.95 10.46 58.86 10.65L58.86 10.65L58.80 10.72L58.72 10.81L58.72 10.81Q58.62 11.52 58.62 12.03L58.62 12.03L58.62 12.03Q58.81 12.14 58.81 12.29L58.81 12.29L58.81 12.29Q58.81 12.53 58.46 12.80L58.46 12.80L58.46 12.80Q58.37 12.87 58.24 12.94L58.24 12.94L58.24 12.94Q58.14 12.99 57.97 13.03L57.97 13.03L57.97 13.03Q57.79 13.08 57.62 13.08L57.62 13.08L57.62 13.08Q57.11 13.08 57.15 12.70L57.15 12.70L57.26 11.52L57.26 11.52Q55.38 12.42 54.38 12.42L54.38 12.42L54.38 12.42Q53.10 12.42 53.10 11.05L53.10 11.05L53.10 11.05Q53.10 9.73 54.47 8.81L54.47 8.81L54.47 8.81Q55.83 7.88 57.74 7.14L57.74 7.14L57.74 7.14Q57.79 6.59 57.82 6.03L57.82 6.03L57.82 6.03Q57.82 5.92 57.83 5.75L57.83 5.75L57.83 5.75Q57.85 5.59 57.85 5.38L57.85 5.38L57.85 5.38Q57.85 5.11 57.81 5.03L57.81 5.03L57.76 4.97L57.75 4.97L57.75 4.97Q57.54 4.97 56.97 5.54L56.97 5.54L56.97 5.54Q56.45 6.05 55.68 7.06L55.68 7.06L55.68 7.06Q55.57 7.21 55.31 7.31L55.31 7.31L55.31 7.31Q55.05 7.41 54.78 7.41L54.78 7.41L54.78 7.41Q54.59 7.41 54.45 7.34L54.45 7.34L54.45 7.34Q54.32 7.27 54.32 7.13L54.32 7.13L54.32 7.13Q54.32 7.01 54.43 6.83L54.43 6.83L54.43 6.83Q56.36 3.92 58.20 3.92L58.20 3.92ZM63.80 3.88L63.80 3.88Q64.20 3.71 64.54 3.71L64.54 3.71L64.54 3.71Q64.90 3.71 65.13 3.90L65.13 3.90L65.13 3.90Q65.35 4.09 65.35 4.51L65.35 4.51L65.35 4.51Q65.35 4.91 65.23 5.39L65.23 5.39L65.23 5.39Q65.10 5.87 64.88 6.51L64.88 6.51L64.68 7.10L64.68 7.10Q64.60 7.36 64.25 7.55L64.25 7.55L64.25 7.55Q63.90 7.73 63.57 7.73L63.57 7.73L63.57 7.73Q63.36 7.73 63.26 7.64L63.26 7.64L63.26 7.64Q63.15 7.55 63.21 7.36L63.21 7.36L63.21 7.36Q63.46 6.58 63.71 5.63L63.71 5.63L63.71 5.63Q63.77 5.19 63.80 5.05L63.80 5.05L63.74 5.11L63.74 5.11Q62.66 6.03 61.77 7.43L61.77 7.43L61.77 7.43Q61.36 9.66 61.26 11.90L61.26 11.90L61.26 11.90Q61.25 12.17 60.91 12.37L60.91 12.37L60.91 12.37Q60.56 12.57 60.20 12.57L60.20 12.57L60.20 12.57Q59.99 12.57 59.85 12.47L59.85 12.47L59.85 12.47Q59.71 12.38 59.72 12.18L59.72 12.18L59.72 12.18Q59.84 10.16 60.16 8.26L60.16 8.26L60.16 8.26Q60.02 8.16 60.02 8.04L60.02 8.04L60.02 8.04Q60.02 7.95 60.07 7.85L60.07 7.85L60.28 7.50L60.28 7.50Q60.59 5.89 61.04 4.27L61.04 4.27L61.04 4.27Q61.11 4.02 61.48 3.83L61.48 3.83L61.48 3.83Q61.85 3.64 62.19 3.64L62.19 3.64L62.19 3.64Q62.40 3.64 62.51 3.72L62.51 3.72L62.51 3.72Q62.62 3.81 62.57 3.98L62.57 3.98L62.57 3.98Q62.34 4.76 62.29 5.01L62.29 5.01L62.29 5.01Q63.13 4.17 63.80 3.88L63.80 3.88Z"></path></g><defs data-v-fde0c5aa=""><!----></defs><g data-v-fde0c5aa="" id="0ee5e2d7-5b63-446b-82b9-62ee82fef2ee" stroke="none" fill="#ffffff" transform="matrix(1.6976369726399518,0,0,1.6976369726399518,65.11386751310815,22.439044360818926)"><defs><style>.a{fill:#231f20}</style></defs><path class="a" d="M9 23.49a.85.85 0 0 1-.67-1.37c.91-1.15 5.56-6.93 8.36-7.38 3.23-.52 5.43 1.37 7.2 2.88 2.12 1.81 3.13 2.54 4.88.88a43.26 43.26 0 0 0 3-3.28c2.24-2.62 4-4.68 8.3-4.87 3.25-.14 5.25 2.35 7 4.54 1.56 1.92 3 3.74 5.08 3.74a.85.85 0 0 1 0 1.7c-2.86 0-4.66-2.22-6.4-4.37s-3.3-4-5.63-3.91c-3.56.16-4.88 1.71-7.08 4.28a44.79 44.79 0 0 1-3.14 3.4c-2.93 2.8-5.17.88-7.16-.81-1.61-1.43-3.33-2.92-5.74-2.51-1.66.27-5.36 4.28-7.29 6.75a.85.85 0 0 1-.71.33zM9 85.33a.85.85 0 0 1-.81-.89c.53-10.46 7.16-19 19.17-24.65a.85.85 0 0 1 .64 1.53c-11.57 5.46-17.69 13.27-18.2 23.2a.85.85 0 0 1-.8.81zM47.61 49.81a.85.85 0 0 1-.48-1.55c3.59-2.43 4-5.3 4.54-8.63.61-3.94 1.29-8.41 7.46-12.54 12.08-8.08 31-4.42 31.8-4.25a.85.85 0 0 1-.33 1.67c-.19 0-19-3.69-30.52 4-5.55 3.71-6.15 7.61-6.73 11.38-.52 3.41-1.07 6.94-5.27 9.78a.85.85 0 0 1-.47.14z"></path><path class="a" d="M91 81.76a.84.84 0 0 1-.46-.14c-.59-.38-14.34-9.56-12-21.55 1.84-9.48-.37-13.45-2.32-17-1.59-2.85-3.09-5.55-1.81-10.39 2.83-10.74 16.3-9.91 16.43-9.9a.85.85 0 0 1-.12 1.7 20.66 20.66 0 0 0-6.51.8c-4.38 1.3-7.13 3.94-8.15 7.84-1.1 4.18.11 6.36 1.65 9.13 2 3.57 4.46 8 2.5 18.11-2.13 10.9 11.12 19.75 11.26 19.84a.85.85 0 0 1-.47 1.56zM34.09 76.29h-11a.85.85 0 0 1-.85-.85v-5a1.22 1.22 0 0 1 1.22-1.22h6.9a4.58 4.58 0 0 1 4.58 4.58v1.68a.85.85 0 0 1-.85.81zm-10.15-1.7h9.3v-.83a2.88 2.88 0 0 0-2.88-2.88h-6.43zM28.57 60.11h-5.51a.85.85 0 0 1-.85-.85v-1.32a3.19 3.19 0 0 1 3.19-3.19h1.67a2.36 2.36 0 0 1 2.35 2.35v2.15a.85.85 0 0 1-.85.86zm-4.66-1.7h3.81v-1.3a.66.66 0 0 0-.65-.65H25.4a1.49 1.49 0 0 0-1.49 1.49z"></path><path class="a" d="M69.14 59.82H28.73a.85.85 0 0 1-.79-1.17l2.63-6.55a5.56 5.56 0 0 1 5.16-3.53h26.41a5.56 5.56 0 0 1 5.16 3.53l2.63 6.55a.85.85 0 0 1-.79 1.17zM30 58.12h37.9l-2.16-5.38a3.86 3.86 0 0 0-3.58-2.47H35.73a3.86 3.86 0 0 0-3.58 2.47z"></path><path class="a" d="M71.59 83.28H56a.85.85 0 0 1 0-1.7h15.6a2.37 2.37 0 0 0 2.32-2.41v-9.21a6.09 6.09 0 0 0-.93-2l-4.36-8.13h-39.4l-4.32 8.06a6.37 6.37 0 0 0-1 2.08v9.22a2.37 2.37 0 0 0 2.32 2.4h15.52a.85.85 0 0 1 0 1.7H26.23a4.07 4.07 0 0 1-4-4.11v-9.31a.85.85 0 0 1 0-.17 7.63 7.63 0 0 1 1.23-2.7L28 58.57a.85.85 0 0 1 .75-.45H69.1a.85.85 0 0 1 .75.45l4.55 8.51a7.38 7.38 0 0 1 1.16 2.62.77.77 0 0 1 0 .16v9.31a4.07 4.07 0 0 1-3.97 4.11z"></path><path class="a" d="M74.81 76.29h-11a.85.85 0 0 1-.85-.85v-1.68a4.58 4.58 0 0 1 4.58-4.58h6.75a1.4 1.4 0 0 1 1.4 1.4v4.86a.85.85 0 0 1-.88.85zm-10.17-1.7H74v-3.7h-6.49a2.88 2.88 0 0 0-2.88 2.88zM62.86 83.28a.85.85 0 0 1 0-1.7c.6 0 1.17-.63 1.45-1.33h-7.73v1.81a.85.85 0 1 1-1.7 0v-2.67a.85.85 0 0 1 .85-.85h9.6a.85.85 0 0 1 .85.85c0 1.84-1.42 3.89-3.32 3.89zM35.07 83.28c-1.9 0-3.32-2-3.32-3.88a.85.85 0 0 1 .85-.85h9.6a.85.85 0 0 1 .85.85v2.66a.85.85 0 1 1-1.7 0v-1.82h-7.72c.28.71.85 1.33 1.45 1.33a.85.85 0 0 1 0 1.7zM74.81 60.11H69.3a.85.85 0 0 1-.85-.85v-2.15a2.36 2.36 0 0 1 2.35-2.35h1.67a3.19 3.19 0 0 1 3.19 3.19v1.32a.85.85 0 0 1-.85.84zm-4.66-1.7H74v-.47a1.49 1.49 0 0 0-1.49-1.49H70.8a.65.65 0 0 0-.65.65z"></path><path class="a" d="M66.95 70.89H29.79a.85.85 0 0 1 0-1.7h37.16a.85.85 0 0 1 0 1.7zM55.71 84.28H42.16a.85.85 0 0 1-.85-.85v-4.78a.85.85 0 0 1 .85-.85h13.55a.85.85 0 0 1 .85.85v4.78a.85.85 0 0 1-.85.85zM43 82.58h11.86V79.5H43zM63.78 76.29H34.09a.85.85 0 0 1 0-1.7h29.7a.85.85 0 0 1 0 1.7zM63.78 73.59H34.09a.85.85 0 0 1 0-1.7h29.7a.85.85 0 0 1 0 1.7zM28.15 80.24H23a.85.85 0 0 1-.85-.85v-2.51A.85.85 0 0 1 23 76h5.13a.85.85 0 0 1 .85.85v2.52a.85.85 0 0 1-.83.87zm-4.28-1.7h3.43v-.82h-3.43zM74.62 80.24h-5.13a.85.85 0 0 1-.85-.85v-2.51a.85.85 0 0 1 .85-.85h5.13a.85.85 0 0 1 .85.85v2.52a.85.85 0 0 1-.85.84zm-4.28-1.7h3.43v-.82h-3.43zM34.7 89.67H29a2.61 2.61 0 0 1-2.6-2.6v-4.64a.85.85 0 0 1 .85-.85h9.25a.85.85 0 0 1 .85.85v4.64a2.61 2.61 0 0 1-2.65 2.6zm-6.65-6.39v3.79a.9.9 0 0 0 .9.9h5.75a.9.9 0 0 0 .9-.9v-3.79zM68.87 89.67h-5.74a2.61 2.61 0 0 1-2.6-2.6v-4.64a.85.85 0 0 1 .85-.85h9.25a.85.85 0 0 1 .85.85v4.64a2.61 2.61 0 0 1-2.61 2.6zm-6.65-6.39v3.79a.9.9 0 0 0 .9.9h5.74a.9.9 0 0 0 .9-.9v-3.79zM20.15 48.67a.85.85 0 0 1-.85-.85v-18.9a.85.85 0 1 1 1.7 0v18.9a.85.85 0 0 1-.85.85z"></path><path class="a" d="M23.8 33.42a.85.85 0 0 1-.6-.25l-3-3-3 3A.85.85 0 0 1 15.9 32l3.65-3.65a.88.88 0 0 1 1.2 0L24.4 32a.85.85 0 0 1-.6 1.45z"></path><path class="a" d="M25 39.08a.85.85 0 0 1-.6-.25L20 34.41l-4.42 4.42a.85.85 0 0 1-1.2-1.2l5-5a.85.85 0 0 1 .6-.25.85.85 0 0 1 .6.25l5 5a.85.85 0 0 1-.6 1.45z"></path><path class="a" d="M25.58 44.52a.85.85 0 0 1-.6-.25l-4.83-4.83-4.83 4.83a.85.85 0 0 1-1.2-1.2l5.43-5.43a.85.85 0 0 1 1.2 0l5.44 5.43a.85.85 0 0 1-.6 1.45zM37.4 39.38a.85.85 0 0 1-.85-.85V25.84a.85.85 0 1 1 1.7 0v12.69a.85.85 0 0 1-.85.85z"></path><path class="a" d="M39.85 29.15a.84.84 0 0 1-.6-.25L37.4 27l-1.85 1.9a.85.85 0 0 1-1.2-1.2l2.45-2.45a.85.85 0 0 1 1.2 0l2.45 2.45a.85.85 0 0 1-.6 1.45z"></path><path class="a" d="M40.66 32.94a.85.85 0 0 1-.6-.25l-2.77-2.77-2.77 2.77a.85.85 0 1 1-1.2-1.2l3.37-3.37a.85.85 0 0 1 1.2 0l3.37 3.37a.85.85 0 0 1-.6 1.45z"></path><path class="a" d="M41 36.59a.85.85 0 0 1-.6-.25l-3-3-3 3a.85.85 0 0 1-1.2-1.2l3.65-3.65a.88.88 0 0 1 1.2 0l3.65 3.65a.85.85 0 0 1-.6 1.45z"></path></g><!----></svg>